<svg xmlns="http://www.w3.org/2000/svg" width="36.457" height="40.514" viewBox="0 0 36.457 40.514">
  <g id="delete-2-svgrepo-com" transform="translate(-2 -1)">
    <path id="Path_77" data-name="Path 77" d="M10,12V22.143" transform="translate(6.171 9.257)" fill="none" stroke="#000" stroke-linecap="round" stroke-linejoin="round" stroke-width="4"/>
    <path id="Path_78" data-name="Path 78" d="M14,12V22.143" transform="translate(10.286 9.257)" fill="none" stroke="#000" stroke-linecap="round" stroke-linejoin="round" stroke-width="4"/>
    <path id="Path_79" data-name="Path 79" d="M4,7H36.457" transform="translate(0 4.114)" fill="none" stroke="#000" stroke-linecap="round" stroke-linejoin="round" stroke-width="4"/>
    <path id="Path_80" data-name="Path 80" d="M6,10V26.229a6.086,6.086,0,0,0,6.086,6.086H24.257a6.086,6.086,0,0,0,6.086-6.086V10" transform="translate(2.057 7.2)" fill="none" stroke="#000" stroke-linecap="round" stroke-linejoin="round" stroke-width="4"/>
    <path id="Path_81" data-name="Path 81" d="M9,7.057A4.057,4.057,0,0,1,13.057,3h4.057a4.057,4.057,0,0,1,4.057,4.057v4.057H9Z" transform="translate(5.143)" fill="none" stroke="#000" stroke-linecap="round" stroke-linejoin="round" stroke-width="4"/>
  </g>
</svg>
