<svg xmlns="http://www.w3.org/2000/svg" xmlns:xlink="http://www.w3.org/1999/xlink" width="93.339" height="84.92" viewBox="0 0 93.339 84.92">
  <defs>
    <clipPath id="clip-path">
      <rect id="Rectangle_356" data-name="Rectangle 356" width="93.339" height="84.92" transform="translate(0.144 0.455)" fill="#fff"/>
    </clipPath>
  </defs>
  <g id="saving-svgrepo-com" transform="translate(-0.144 -0.455)" clip-path="url(#clip-path)">
    <path id="Path_54" data-name="Path 54" d="M21.862,117.919c-.549,1.98-.856,2.539-1.408,4.372a3.172,3.172,0,0,1-2.657,2.374c-3.587.528-7.178,1.154-10.827.637-3.347-.476-5.485-2.575-5.652-5.953C1.034,113.6.934,107.837.786,102.08c-.044-1.689-.066-3.385.04-5.069.215-3.42,1.819-5.242,5.234-5.475,3.742-.256,7.508-.194,11.264-.2a3.466,3.466,0,0,1,3.038,2.2c.321.6.549,1.248.8,1.83,2.337-.329,4.6-.745,6.878-.949A25.39,25.39,0,0,1,40.2,96.107a28.573,28.573,0,0,0,14,1.825,14.581,14.581,0,0,1,3.551.115c3.853.586,5.7,3.446,4.742,7.2-.077.3-.192.586-.4,1.217,1.352-.1,2.549-.144,3.736-.278,5.086-.576,9.829-2.388,14.6-4.085,2.121-.753,4.221-1.591,6.386-2.183a12.111,12.111,0,0,1,3.893-.343c2.317.147,3.4,1.83,2.8,4.057a9.23,9.23,0,0,1-2.973,4.465,39.1,39.1,0,0,1-13.624,7.732,101.01,101.01,0,0,1-21.688,5.169c-9.856,1.2-19.993,1.212-29.384-2.011C24.511,118.519,23.116,118.329,21.862,117.919Zm.069-3.55c2.269.6,4.372,1.163,6.479,1.706a63.263,63.263,0,0,0,20.076,2.2,96.961,96.961,0,0,0,29.276-7.034,33.216,33.216,0,0,0,9.9-6.016,22.641,22.641,0,0,0,1.792-2l-.313-.471c-1.349.4-2.713.753-4.043,1.208-4.614,1.579-9.183,3.3-13.833,4.763a21.837,21.837,0,0,1-11.311.792,2.612,2.612,0,0,0-1.6.25c-4.9,2.486-10.182,2.933-15.53,2.962a13.857,13.857,0,0,1-3.666-.674,1.406,1.406,0,0,1-1.062-1.751,2.761,2.761,0,0,1,1.143-1.531,5.336,5.336,0,0,1,2.174-.5c2.06-.163,4.125-.256,6.189-.37a22.8,22.8,0,0,0,8.4-1.761,8.455,8.455,0,0,0,2.816-2.079c.959-1.117.448-2.215-1.025-2.365a21.754,21.754,0,0,0-3.561.04c-4.868.313-9.634-.022-14.175-2.015a24.166,24.166,0,0,0-2.644-.965,24.715,24.715,0,0,0-13.892-.249c-1.773.476-1.757.553-1.663,2.332.149,2.875.347,5.75.4,8.629.029,1.552-.2,3.109-.331,4.9Zm-5.216-19.5c-3,0-5.868-.028-8.735.008-2.568.032-3.208.686-3.264,3.25-.143,6.567-.358,13.135-.366,19.7,0,2.782,1.378,3.689,3.352,3.541,2.618-.2,5.234-.433,7.841-.746,1.375-.165,1.617-.592,1.593-2.036a27.347,27.347,0,0,1-.01-3.562c.7-6.07.2-12.128-.1-18.188a19.171,19.171,0,0,0-.315-1.969Z" transform="translate(-0.268 -40.197)"/>
    <path id="Path_55" data-name="Path 55" d="M73.933,39.034c4,2.739,5.485,6.785,5.932,11.4.782,8.08-4.013,13.114-9.636,15.264-4.633,1.772-9.385,2.672-14.315,1.225a12.577,12.577,0,0,1-9.3-12.207A17.889,17.889,0,0,1,58.1,37.538C62.545,35.724,71.178,37.15,73.933,39.034ZM60.345,63.524c2.42.288,6.825-.751,9-1.71,4.022-1.769,6.967-5.024,6.283-10.969-.571-4.958-3.088-8.735-7.888-9.73-2.505-.519-7.4-.751-9.889.3-5.436,2.306-7.547,7.76-7.264,13.72.277,5.828,6.15,7.954,9.754,8.384Z" transform="translate(-20.55 -16.032)"/>
    <path id="Path_56" data-name="Path 56" d="M16.237,107.475a2.621,2.621,0,0,1-2.832-2.59,3.215,3.215,0,0,1,3.033-3.372c1.958-.011,3.472,1.135,3.484,2.636C19.936,105.769,18.069,107.452,16.237,107.475Z" transform="translate(-5.865 -44.699)"/>
    <path id="Path_57" data-name="Path 57" d="M72.842,51.007v4.446c.648.244,1.254.446,1.839.7a3.129,3.129,0,0,1,1.358,5.137c-.622.818-1.111,1.15-2.943,1.991-.173.878-.347,1.743-.512,2.611-.092.483-.322.857-.85.869-.556.013-.752-.439-.851-.877-.186-.82-.313-1.654-.482-2.577-.673-.18-1.406-.37-2.136-.573a6.618,6.618,0,0,1-1.034-.335,1.25,1.25,0,0,1-.808-1.459,1.19,1.19,0,0,1,1.388-.9c.839.055,1.672.2,2.486.3a5.948,5.948,0,0,0,.231-3.093c-.567-.213-1.181-.4-1.757-.667a3.246,3.246,0,0,1-1.2-5.385,6.166,6.166,0,0,1,2.608-1.916,1.216,1.216,0,0,0,.9-1.255,3.243,3.243,0,0,1,.283-1.284.944.944,0,0,1,.742-.456.957.957,0,0,1,.64.6,8.888,8.888,0,0,1,.165,1.569,16.638,16.638,0,0,1,1.647.465,1.632,1.632,0,0,1,1.167,1.772c-.093.675-.46.9-1.09.626C74.084,51.069,73.571,50.709,72.842,51.007Zm-2.13.881c-1.183.7-1.788,1.448-1.569,2,.261.664.867.832,1.569.923Zm2.21,8.333c.786-.29,1.506-.637,1.482-1.433-.02-.668-.756-.805-1.354-.9-.034-.005-.073.026-.225.082,0,.465-.008.974,0,1.482C72.834,59.68,72.881,59.9,72.922,60.221Z" transform="translate(-29.302 -20.269)"/>
    <path id="Path_58" data-name="Path 58" d="M126.514,14.677v4.447c.648.244,1.254.446,1.838.7a3.129,3.129,0,0,1,1.358,5.137c-.622.818-1.111,1.149-2.942,1.991-.173.878-.347,1.377-.513,2.244-.092.483-.323.857-.85.87-.557.013-.752-.439-.851-.877-.186-.82-.313-1.288-.482-2.211-.673-.18-1.406-.37-2.136-.573a6.67,6.67,0,0,1-1.034-.335,1.25,1.25,0,0,1-.808-1.459,1.19,1.19,0,0,1,1.388-.9c.839.055,1.672.2,2.487.3a5.956,5.956,0,0,0,.23-3.093c-.567-.213-1.181-.4-1.758-.667a3.246,3.246,0,0,1-1.2-5.385,6.17,6.17,0,0,1,2.609-1.916,1.218,1.218,0,0,0,.9-1.255,3.227,3.227,0,0,1,.283-1.284.945.945,0,0,1,.743-.457.958.958,0,0,1,.64.6,8.924,8.924,0,0,1,.165,1.568,16.513,16.513,0,0,1,1.647.465,1.631,1.631,0,0,1,1.166,1.772c-.093.676-.461.9-1.09.626A2.065,2.065,0,0,0,126.514,14.677Zm-2.13.881c-1.183.7-1.788,1.448-1.57,2,.261.664.867.832,1.57.923Zm2.21,8.333c.786-.29,1.506-.638,1.482-1.434-.02-.668-.756-.805-1.354-.895-.035-.005-.074.026-.225.082,0,.465-.008.974,0,1.482C126.506,23.35,126.553,23.572,126.593,23.892Z" transform="translate(-53.041 -4.199)"/>
    <path id="Path_59" data-name="Path 59" d="M126.9,2.8c4,2.739,5.485,6.785,5.932,11.4.782,8.08-4.013,13.114-9.636,15.264-4.633,1.772-9.384,2.672-14.314,1.225a12.577,12.577,0,0,1-9.3-12.208A17.89,17.89,0,0,1,111.068,1.308C115.512-.5,124.144.921,126.9,2.8Zm-13.588,24.49c2.42.289,6.824-.751,9-1.709,4.022-1.769,6.967-5.025,6.282-10.969-.571-4.958-3.087-8.735-7.888-9.729-2.506-.519-7.4-.751-9.889.3-5.436,2.306-7.547,7.76-7.264,13.72.277,5.829,6.15,7.955,9.754,8.385Z" transform="translate(-43.977 -0.008)"/>
  </g>
</svg>
