<svg xmlns="http://www.w3.org/2000/svg" width="55.81" height="52.912" viewBox="0 0 55.81 52.912">
  <g id="setting-2-svgrepo-com" transform="translate(0 -0.544)">
    <path id="Path_49" data-name="Path 49" d="M16.768,24.535A7.768,7.768,0,1,0,9,16.768,7.767,7.767,0,0,0,16.768,24.535Z" transform="translate(11.124 10.233)" fill="none" stroke="#292d32" stroke-linecap="round" stroke-linejoin="round" stroke-miterlimit="10" stroke-width="4" opacity="0.34"/>
    <path id="Path_50" data-name="Path 50" d="M2,29.279V24.722A4.934,4.934,0,0,1,6.919,19.8c4.686,0,6.6-3.314,4.246-7.379a4.917,4.917,0,0,1,1.812-6.706l4.479-2.563a4.321,4.321,0,0,1,5.9,1.554l.285.492c2.33,4.065,6.162,4.065,8.518,0l.285-.492a4.321,4.321,0,0,1,5.9-1.554l4.479,2.563a4.917,4.917,0,0,1,1.812,6.706c-2.356,4.065-.44,7.379,4.246,7.379a4.934,4.934,0,0,1,4.919,4.919v4.557A4.934,4.934,0,0,1,48.891,34.2c-4.686,0-6.6,3.314-4.246,7.379a4.911,4.911,0,0,1-1.812,6.706l-4.479,2.563a4.321,4.321,0,0,1-5.9-1.554l-.285-.492c-2.33-4.065-6.162-4.065-8.518,0l-.285.492a4.321,4.321,0,0,1-5.9,1.554l-4.479-2.563a4.917,4.917,0,0,1-1.812-6.706c2.356-4.065.44-7.379-4.246-7.379A4.934,4.934,0,0,1,2,29.279Z" transform="translate(0 0)" fill="none" stroke="#292d32" stroke-linecap="round" stroke-linejoin="round" stroke-miterlimit="10" stroke-width="4"/>
  </g>
</svg>
