<svg xmlns="http://www.w3.org/2000/svg" width="63.848" height="89.104" viewBox="0 0 63.848 89.104">
  <g id="shield-5-svgrepo-com" transform="translate(-26.693)">
    <path id="Path_52" data-name="Path 52" d="M76.093,11.411,58.617,0,41.137,11.412,26.693,6.449V51.592a26.5,26.5,0,0,0,1.178,7.663A39.088,39.088,0,0,0,33.9,70.892,60.484,60.484,0,0,0,46.934,83.747a41.566,41.566,0,0,0,6.284,3.815A19.87,19.87,0,0,0,56,88.664a9.231,9.231,0,0,0,2.621.44,11.2,11.2,0,0,0,4.044-.945,39.039,39.039,0,0,0,8.275-4.878A59.968,59.968,0,0,0,83.88,70.136,40.345,40.345,0,0,0,88.588,61.5a27.529,27.529,0,0,0,1.953-9.911V6.449Zm8.063,40.181a16.721,16.721,0,0,1-.767,4.842A30.846,30.846,0,0,1,78.63,65.5,53.719,53.719,0,0,1,67.108,76.836,35.794,35.794,0,0,1,61.742,80.1a14.479,14.479,0,0,1-2,.8,4.293,4.293,0,0,1-1.124.218,6.565,6.565,0,0,1-2.091-.561,33.482,33.482,0,0,1-6.963-4.139A53.177,53.177,0,0,1,38.146,64.861a32.112,32.112,0,0,1-3.75-6.829,17.914,17.914,0,0,1-1.318-6.44V16.92l8.79,3.019L58.617,9,75.363,19.939l1.211-.416,7.582-2.6C84.156,24.717,84.156,39.744,84.156,51.592Z" fill="#ff555f"/>
    <path id="Path_53" data-name="Path 53" d="M137.57,103.69l-14.762,10.49-4.392-1.642V139.6c0,9.211,14.362,22.564,19.154,23.667,4.792-1.1,19.154-14.456,19.154-23.667V112.538l-4.4,1.642Z" transform="translate(-78.953 -88.189)" fill="#073262"/>
  </g>
</svg>
